<svg width="180" height="40" viewBox="0 0 180 40" fill="none" xmlns="http://www.w3.org/2000/svg">
  <!-- Ícono -->
  <rect width="40" height="40" rx="11" fill="#4f6ef7"/>
  <rect x="5" y="13" width="11" height="22" rx="2" fill="white"/>
  <rect x="6.5" y="16" width="3" height="3" rx="0.7" fill="#4f6ef7"/>
  <rect x="11" y="16" width="3" height="3" rx="0.7" fill="#4f6ef7"/>
  <rect x="6.5" y="21" width="3" height="3" rx="0.7" fill="#4f6ef7"/>
  <rect x="11" y="21" width="3" height="3" rx="0.7" fill="#4f6ef7"/>
  <rect x="18" y="7" width="12" height="28" rx="2" fill="white" opacity="0.85"/>
  <rect x="20" y="11" width="2" height="9" rx="0.7" fill="#4f6ef7"/>
  <rect x="20" y="11" width="5" height="2" rx="0.7" fill="#4f6ef7"/>
  <rect x="20" y="15.5" width="4" height="2" rx="0.7" fill="#4f6ef7"/>
  <rect x="26" y="11" width="2" height="9" rx="0.7" fill="#4f6ef7"/>
  <rect x="26" y="11" width="4.5" height="2" rx="0.7" fill="#4f6ef7"/>
  <rect x="26" y="15.5" width="4.5" height="2" rx="0.7" fill="#4f6ef7"/>
  <path d="M28 17.5L31.5 20.5" stroke="#4f6ef7" stroke-width="1.8" stroke-linecap="round"/>
  <rect x="30" y="11" width="2" height="6.5" rx="1" fill="#4f6ef7"/>
  <rect x="20" y="23" width="3" height="3" rx="0.7" fill="#4f6ef7"/>
  <rect x="24.5" y="23" width="3" height="3" rx="0.7" fill="#4f6ef7"/>
  <rect x="29" y="23" width="1.5" height="3" rx="0.7" fill="#4f6ef7"/>

  <!-- Texto blanco para fondo oscuro -->
  <text x="50" y="25" font-family="system-ui, -apple-system, sans-serif" font-size="18" font-weight="800" fill="white" letter-spacing="-0.5">FindRent</text>
  <text x="50" y="35" font-family="system-ui, -apple-system, sans-serif" font-size="7" fill="rgba(255,255,255,0.35)" letter-spacing="1.5">PROPERTY MANAGEMENT</text>
</svg>
